HIERARCHY
ROOT hip
{
	OFFSET 0.00000 0.00000 0.00000
	CHANNELS 6 Xposition Yposition Zposition Zrotation Yrotation Xrotation 
	JOINT rightuplegdummy
	{
		OFFSET 0 0 0
		CHANNELS 3 Zrotation Yrotation Xrotation
		JOINT rightupleg
		{
			OFFSET -3.52197 -3.41223 0.04002
			CHANNELS 3 Zrotation Yrotation Xrotation
			JOINT rightleg
			{
				OFFSET 0.00006 -17.42390 1.60435
				CHANNELS 3 Zrotation Yrotation Xrotation
				JOINT rightfoot
				{
					OFFSET 0.06153 -16.50078 -1.63901
					CHANNELS 3 Zrotation Yrotation Xrotation
					JOINT righttoes
					{
						OFFSET 0.00298 -1.73825 3.34613
						CHANNELS 3 Zrotation Yrotation Xrotation
						End Site
						{
							OFFSET 0.00480 -0.05416 3.85043
						}
					}
				}
			}
		}
	}
	JOINT spinedummy
	{
		OFFSET 0 0 0
		CHANNELS 3 Zrotation Yrotation Xrotation
		JOINT spine
		{
			OFFSET 0.00000 4.68130 0.00000
			CHANNELS 3 Zrotation Yrotation Xrotation
			JOINT spine1
			{
				OFFSET -0.00000 10.10138 0.05002
				CHANNELS 3 Zrotation Yrotation Xrotation
				JOINT headdummy
				{
					OFFSET 0 0 0
					CHANNELS 3 Zrotation Yrotation Xrotation
					JOINT head
					{
						OFFSET -0.00000 3.43865 0.00438
						CHANNELS 3 Zrotation Yrotation Xrotation
						End Site
						{
							OFFSET -0.11417 5.02924 0.98962
						}
					}
				}
				JOINT leftshoulder1dummy
				{
					OFFSET 0 0 0
					CHANNELS 3 Zrotation Yrotation Xrotation
					JOINT leftshoulder1
					{
						OFFSET 3.53937 -0.14262 -0.08662
						CHANNELS 3 Zrotation Yrotation Xrotation
						JOINT leftarm
						{
							OFFSET 4.04833 -0.00133 0.12681
							CHANNELS 3 Zrotation Yrotation Xrotation
							JOINT leftforearm
							{
								OFFSET 10.33880 -0.01036 -0.55515
								CHANNELS 3 Zrotation Yrotation Xrotation
								JOINT lefthand
								{
									OFFSET 8.69677 0.07543 0.40060
									CHANNELS 3 Zrotation Yrotation Xrotation
									End Site
									{
										OFFSET 5.28377 -0.21905 0.59205
									}
								}
							}
						}
					}
				}
				JOINT rightshoulderdummy
				{
					OFFSET 0 0 0
					CHANNELS 3 Zrotation Yrotation Xrotation
					JOINT rightshoulder
					{
						OFFSET -3.53937 -0.14262 -0.08660
						CHANNELS 3 Zrotation Yrotation Xrotation
						JOINT rightarm
						{
							OFFSET -4.04833 -0.00133 0.12683
							CHANNELS 3 Zrotation Yrotation Xrotation
							JOINT rightforearm
							{
								OFFSET -10.37987 -0.01039 -0.55511
								CHANNELS 3 Zrotation Yrotation Xrotation
								JOINT righthand
								{
									OFFSET -8.67398 0.07538 0.40058
									CHANNELS 3 Zrotation Yrotation Xrotation
									End Site
									{
										OFFSET -5.24810 -0.21916 0.59204
									}
								}
							}
						}
					}
				}
			}
		}
	}
	JOINT leftuplegdummy
	{
		OFFSET 0 0 0
		CHANNELS 3 Zrotation Yrotation Xrotation
		JOINT leftupleg
		{
			OFFSET 3.52197 -3.41223 0.04002
			CHANNELS 3 Zrotation Yrotation Xrotation
			JOINT leftleg
			{
				OFFSET -0.00012 -17.42399 1.60337
				CHANNELS 3 Zrotation Yrotation Xrotation
				JOINT leftfoot
				{
					OFFSET -0.09972 -16.50070 -1.63802
					CHANNELS 3 Zrotation Yrotation Xrotation
					JOINT lefttoes
					{
						OFFSET -0.01575 -1.73823 3.34611
						CHANNELS 3 Zrotation Yrotation Xrotation
						End Site
						{
							OFFSET 0.03150 -0.01868 3.85031
						}
					}
				}
			}
		}
	}
}
MOTION
Frames: 12
Frame Time: 0.033333
-1.9931 38.1903 32.6115 178.8210 72.9565 174.8420 0.0000 -0.0000 0.0000 -18.5549 -19.2903 1.9789 4.9727 7.1050 30.5249 17.8540 0.1400 -12.6347 0.0000 0.0000 -0.0000 0.0000 -0.0000 0.0000 5.8344 3.5810 6.5603 -7.0207 5.9138 12.8255 -0.0000 -0.0000 -0.0000 -28.2403 49.3939 -25.9676 -0.0000 -0.0000 -0.0000 -21.4116 -3.1847 1.8580 -45.3885 -5.8864 24.8612 -0.3698 -31.8712 4.4815 16.6299 1.4248 -0.5751 -0.0000 -0.0000 -0.0000 24.2889 4.5327 2.4506 39.6149 12.7734 10.4452 178.1954 64.3879 170.2375 -1.3716 -4.6811 -0.0520 0.0000 -0.0000 0.0000 13.2257 4.5737 -11.2265 2.1465 2.1584 33.3582 -13.0440 0.7592 -4.9821 0.0000 -0.0000 -0.0000
-2.2817 36.9718 32.9069 -178.6970 74.1242 176.9380 0.0000 -0.0000 0.0000 -18.3746 -21.2839 -0.8722 7.9462 8.8954 37.1883 15.5864 1.0814 -19.7817 0.0000 0.0000 -0.0000 0.0000 -0.0000 0.0000 7.4915 3.2241 6.8088 -7.8565 5.9181 14.5578 -0.0000 -0.0000 -0.0000 -32.9849 49.4911 -30.9830 -0.0000 -0.0000 -0.0000 -23.1943 -2.9490 1.9009 -43.4711 -8.1231 22.5070 -0.3135 -32.3609 5.4525 18.3897 1.7901 -0.5793 -0.0000 -0.0000 -0.0000 24.7090 4.3531 2.4272 34.2121 21.4369 5.7864 177.2249 70.6981 167.2113 -7.0234 -6.9762 0.0441 0.0000 -0.0000 0.0000 14.6058 5.6860 -12.9387 2.8083 2.5123 38.0452 -14.2440 -0.0504 -12.3188 0.0000 -0.0000 -0.0000
-2.3323 36.6396 32.9477 -177.5560 75.5678 177.7030 0.0000 -0.0000 0.0000 -18.3305 -21.4612 -1.8984 9.0127 9.4227 39.1923 14.6407 1.1503 -20.8841 0.0000 0.0000 -0.0000 0.0000 -0.0000 0.0000 7.3320 3.3107 6.1568 -6.5730 5.6489 16.2365 -0.0000 -0.0000 -0.0000 -37.2564 50.6524 -34.2992 -0.0000 -0.0000 -0.0000 -24.4169 -2.8416 1.9433 -43.8375 -8.7526 22.6376 -0.3103 -29.9428 5.4544 22.5253 2.3409 -0.6047 -0.0000 -0.0000 -0.0000 26.0176 4.5780 2.5981 33.5170 26.1140 5.4008 176.8380 76.6936 170.4506 -14.9517 -10.3789 0.5826 0.0000 -0.0000 0.0000 15.4462 6.9974 -12.7336 2.0368 1.5996 39.5964 -15.5157 -0.2814 -14.0228 0.0000 -0.0000 -0.0000
-2.0625 37.4562 32.6890 178.4420 76.2512 173.2530 0.0000 -0.0000 0.0000 -19.5142 -19.9116 0.7731 7.7004 9.4973 34.4869 15.9628 0.7222 -17.0187 0.0000 0.0000 -0.0000 0.0000 -0.0000 0.0000 6.1471 3.8116 5.0100 -5.5571 5.8355 17.0283 -0.0000 -0.0000 -0.0000 -36.9833 51.9918 -32.2580 -0.0000 -0.0000 -0.0000 -23.5298 -2.8447 1.8907 -46.4435 -7.8489 28.5082 -0.5039 -25.5892 1.7804 23.1507 2.4822 -0.5941 -0.0000 -0.0000 -0.0000 27.5192 4.9115 2.8272 39.2728 21.6353 7.9578 177.1281 76.6711 172.4860 -19.9168 -11.4890 0.9953 0.0000 -0.0000 0.0000 14.5066 8.8319 -9.8715 0.9002 0.5494 36.1330 -15.9435 0.2666 -9.8444 0.0000 -0.0000 -0.0000
-1.7023 38.9153 32.1823 173.7990 76.1030 168.5490 0.0000 -0.0000 0.0000 -20.7024 -18.1206 4.3250 5.3687 8.8814 26.6158 19.0209 -0.7640 -7.1078 0.0000 0.0000 -0.0000 0.0000 -0.0000 0.0000 5.8884 3.7778 3.9214 -6.1941 5.9815 16.1266 -0.0000 -0.0000 -0.0000 -33.4997 53.6724 -27.1567 -0.0000 -0.0000 -0.0000 -22.8583 -2.7923 1.8350 -47.4668 -4.3172 32.5343 -0.6103 -23.5716 0.4920 17.6367 1.7336 -0.5644 -0.0000 -0.0000 -0.0000 29.0087 5.1225 3.0233 45.3938 12.3126 11.7809 177.2413 72.5276 168.8404 -19.2228 -10.4141 0.7824 0.0000 -0.0000 0.0000 13.1463 10.9003 -6.3023 -1.1100 -2.1344 29.7101 -16.2342 1.5620 -0.4854 0.0000 -0.0000 -0.0000
-1.4334 40.1288 31.6064 172.9110 75.8686 168.0070 0.0000 -0.0000 0.0000 -20.6263 -17.0222 5.7793 2.5740 5.5058 21.0714 18.5795 -2.4099 3.4664 0.0000 0.0000 -0.0000 0.0000 -0.0000 0.0000 6.0507 3.2372 2.9785 -6.4978 5.4613 14.2440 -0.0000 -0.0000 -0.0000 -30.2359 55.3761 -23.3878 -0.0000 -0.0000 -0.0000 -23.2072 -2.6708 1.8199 -46.8473 1.3682 28.7885 -0.4189 -24.9846 3.4569 12.4541 1.2041 -0.4556 -0.0000 -0.0000 -0.0000 29.5524 5.2586 3.1175 48.4763 3.9004 16.2497 177.6557 68.6911 168.4379 -13.2854 -8.2507 0.2737 0.0000 -0.0000 0.0000 12.7341 11.9483 -3.9514 -3.0559 -5.9372 24.3601 -16.3532 2.6827 7.5042 0.0000 -0.0000 -0.0000
-1.3073 40.6531 31.1473 172.5390 75.5055 167.8310 0.0000 -0.0000 0.0000 -20.1421 -16.0007 5.8194 0.5827 1.6691 19.7750 13.5332 -2.1586 6.9210 0.0000 0.0000 -0.0000 0.0000 -0.0000 0.0000 5.2566 2.9477 2.0503 -6.0878 4.9767 13.9555 -0.0000 -0.0000 -0.0000 -28.8752 55.4529 -23.0182 -0.0000 -0.0000 -0.0000 -22.1890 -2.5241 1.7188 -46.9421 4.7489 25.2613 -0.4641 -27.1194 2.4886 11.2525 1.6194 -0.3744 -0.0000 -0.0000 -0.0000 28.5514 5.2307 3.0220 49.6256 -1.1105 18.9004 178.4721 65.4577 174.0631 -6.0140 -4.9261 -0.0620 0.0000 -0.0000 0.0000 12.4470 11.4149 -3.0855 -2.7864 -6.0207 21.8693 -13.6936 2.3816 8.7505 0.0000 -0.0000 -0.0000
-1.3474 40.5526 30.8137 170.3490 75.0325 165.4580 0.0000 -0.0000 0.0000 -20.1887 -14.6925 5.4073 0.6834 1.6917 21.8647 11.3284 -1.5660 4.5725 0.0000 0.0000 -0.0000 0.0000 -0.0000 0.0000 3.8875 3.0393 1.9633 -6.1864 4.9889 14.9013 -0.0000 -0.0000 -0.0000 -28.7332 54.1309 -24.1397 -0.0000 -0.0000 -0.0000 -20.1018 -2.4214 1.5734 -46.9130 4.3179 25.4467 -0.6310 -28.3742 -0.5376 12.0486 2.0869 -0.3548 -0.0000 -0.0000 -0.0000 27.1154 5.0504 2.8403 49.3460 -2.3959 18.7783 178.9202 62.6506 177.4497 -2.9361 -3.4900 -0.0783 0.0000 -0.0000 0.0000 11.9913 10.4298 -3.0411 -0.9654 -2.5990 21.2172 -10.8379 1.8209 8.1938 0.0000 -0.0000 -0.0000
-1.5105 39.8228 30.5073 167.7280 74.8443 162.4430 0.0000 -0.0000 0.0000 -20.6940 -13.5283 4.1605 1.8954 3.3245 26.6748 14.8566 -1.3860 -0.6436 0.0000 0.0000 -0.0000 0.0000 -0.0000 0.0000 2.8477 3.3003 3.6097 -6.6822 5.1880 14.2132 -0.0000 -0.0000 -0.0000 -28.2779 52.8857 -24.0839 -0.0000 -0.0000 -0.0000 -19.2295 -2.5220 1.5512 -45.0504 3.1365 25.8617 -0.6491 -29.9142 -0.6990 13.4038 2.6330 -0.3334 -0.0000 -0.0000 -0.0000 26.4519 4.9837 2.7638 47.3026 -1.5513 16.6179 178.7717 61.3762 175.2400 -3.8216 -4.3316 -0.0690 0.0000 -0.0000 0.0000 11.9153 10.4074 -3.4083 -0.2673 -1.1736 22.6070 -12.5059 1.9155 6.4426 0.0000 -0.0000 -0.0000
-1.7529 38.5088 30.1847 167.2190 74.0432 161.6340 0.0000 -0.0000 0.0000 -21.5379 -13.5251 2.7600 1.6798 2.4695 32.2553 17.9961 -0.4277 -8.8107 0.0000 0.0000 -0.0000 0.0000 -0.0000 0.0000 2.0510 3.2296 5.5763 -6.5294 4.8866 13.1461 -0.0000 -0.0000 -0.0000 -29.0937 51.4168 -25.3486 -0.0000 -0.0000 -0.0000 -19.9008 -2.6496 1.6226 -41.0519 0.8296 26.1765 -0.6476 -31.3247 -0.5396 13.9309 2.7184 -0.3363 -0.0000 -0.0000 -0.0000 26.5870 4.9871 2.7761 43.0856 1.7265 12.1010 178.3720 62.6728 171.1243 -4.3804 -5.0862 -0.0530 0.0000 -0.0000 0.0000 11.9114 11.2512 -5.5461 -1.6117 -2.9276 28.2774 -14.8952 1.2452 -1.8137 0.0000 -0.0000 -0.0000
-2.0835 37.1336 29.8483 169.8110 71.8908 164.2320 0.0000 -0.0000 0.0000 -22.6084 -15.1642 2.1699 1.2012 1.5988 36.3899 18.3479 0.8232 -16.8270 0.0000 0.0000 -0.0000 0.0000 -0.0000 0.0000 1.3072 2.5111 6.1660 -5.0573 3.7299 14.6083 -0.0000 -0.0000 -0.0000 -33.0576 49.1485 -30.4218 -0.0000 -0.0000 -0.0000 -21.4230 -2.5938 1.6947 -36.6497 -4.5280 25.4002 -0.6461 -30.4677 -0.6020 13.7925 2.4228 -0.3663 -0.0000 -0.0000 -0.0000 27.4389 4.8887 2.8131 37.0097 8.1212 6.0440 177.9663 67.7068 170.5528 -6.1469 -6.2028 -0.0047 0.0000 -0.0000 0.0000 11.6284 11.1974 -10.0907 -3.3419 -4.1249 36.6606 -13.9568 0.0519 -11.4771 0.0000 -0.0000 -0.0000
-2.3463 36.4745 29.5382 172.2560 70.3689 166.8870 0.0000 -0.0000 0.0000 -23.3326 -16.6665 1.8564 2.2962 2.6340 38.3938 19.0180 1.4113 -20.2182 0.0000 0.0000 -0.0000 0.0000 -0.0000 0.0000 0.9939 2.2068 6.0082 -3.5060 2.9627 16.8189 -0.0000 -0.0000 -0.0000 -37.3981 46.9794 -35.1762 -0.0000 -0.0000 -0.0000 -22.8742 -2.6104 1.7830 -35.4722 -9.4586 22.1903 -0.6331 -27.9234 -0.6274 18.5430 3.9833 -0.2383 -0.0000 -0.0000 -0.0000 28.6755 4.9516 2.9360 33.8264 12.7939 1.9192 178.0002 74.3273 175.4798 -12.9845 -8.6976 0.3195 0.0000 -0.0000 0.0000 11.4250 10.7159 -13.3988 -4.0282 -4.1773 41.3470 -12.7816 -0.3123 -14.9009 0.0000 -0.0000 -0.0000
